<svg xmlns="http://www.w3.org/2000/svg" width="400" height="400" preserveAspectRatio="xMidYMid meet" version="1.0" viewBox="0 0 300 300"><metadata>Created by potrace 1.14, written by Peter Selinger 2001-2017</metadata><g fill="#000" stroke="none"><path d="M0 1500 l0 -1500 1500 0 1500 0 0 1500 0 1500 -1500 0 -1500 0 0 -1500z m1812 923 c90 -31 226 -103 254 -134 14 -16 10 -25 -51 -113 -37 -53 -68 -96 -70 -96 -2 0 -29 18 -60 39 -164 115 -381 139 -541 61 -70 -34 -110 -79 -130 -148 -38 -124 5 -231 113 -283 26 -12 143 -46 260 -75 319 -78 410 -129 478 -267 59 -121 68 -279 24 -422 -70 -227 -303 -347 -643 -332 -216 10 -380 67 -523 184 l-43 34 72 92 c40 51 73 94 74 96 2 2 21 -11 44 -29 65 -52 181 -107 265 -125 105 -24 286 -17 365 13 139 54 204 172 170 312 -24 101 -103 151 -305 194 -266 58 -305 68 -373 101 -133 63 -202 166 -224 329 -38 297 106 516 385 587 58 15 102 18 222 16 137 -3 158 -6 237 -34z" transform="translate(0.000000,300.000000) scale(0.100000,-0.100000)"/></g></svg>